# Blender v2.91.0 OBJ File: ''
# www.blender.org
mtllib rock3.mtl
o Cube
v 3.386353 0.738983 -1.318608
v 1.889929 -0.599532 -1.136901
v 3.698590 0.873555 1.329083
v 2.481513 -1.041282 0.986327
v 0.576491 2.260142 -1.514252
v -1.394612 -0.254258 -1.181690
v 0.238382 1.483904 2.172305
v -0.916616 -0.417105 1.466857
v -1.407575 -0.443422 -0.186640
v -1.329570 -0.470878 0.782199
v 0.670284 -0.408987 -1.429166
v -0.289345 -0.419175 -1.508341
v 2.809474 0.014748 -1.363949
v 2.343798 -0.328802 -1.357907
v -1.477836 0.298485 1.777808
v -1.124667 0.947569 1.917488
v 3.489284 -0.174704 1.457632
v 2.981525 -0.761315 1.299296
v -0.942285 2.236484 -1.743475
v -1.756475 0.793808 -1.611110
v 2.460038 1.086914 2.387442
v 1.177023 1.365425 2.443989
v 4.214479 1.060282 -0.628269
v 4.640280 1.153612 0.183604
v 0.226414 -0.872393 1.547116
v 1.656159 -1.036805 1.360818
v 0.189597 2.111115 1.047012
v 0.365366 2.424569 -0.378071
v 1.686684 1.863558 -1.814042
v 2.950669 1.023703 -1.375015
v 2.301661 -0.857134 0.354609
v 2.932105 -0.728250 -0.513836
v -0.491436 0.200814 -2.097143
v 0.778784 -0.031919 -2.079515
v 0.213875 1.329541 -2.306047
v 1.209805 0.547323 -2.057624
v 3.681778 -0.387408 -0.710431
v 3.370082 -0.500643 0.483252
v 3.905564 0.210462 -0.772949
v 4.456609 0.217604 0.074001
v -0.096083 -0.855062 -0.392179
v 0.148533 -0.930301 0.614406
v 1.452237 -0.803620 -0.482169
v 1.565184 -1.047152 0.503892
v -2.455304 0.335532 0.802887
v -2.482089 0.551653 -0.724239
v -2.251475 1.577013 0.797851
v -2.055758 2.096225 -0.566249
v 1.733472 -0.656000 1.981824
v -0.117550 -0.344726 2.011768
v 1.518922 0.067393 2.433506
v 0.006790 0.464621 2.231581
v 3.944636 1.732979 -0.457713
v 3.607708 1.860672 0.723551
v 1.561046 2.274911 -0.586833
v 1.576190 1.992124 1.521436
vt 0.791996 0.666682
vt 0.874573 0.750045
vt 0.791982 0.749960
vt 0.542039 0.916560
vt 0.625939 0.999612
vt 0.541991 0.999981
vt 0.625003 0.166664
vt 0.541667 0.250000
vt 0.541667 0.166667
vt 0.291667 0.666667
vt 0.375000 0.750000
vt 0.291667 0.750000
vt 0.541870 0.666753
vt 0.625994 0.749590
vt 0.542016 0.750155
vt 0.625000 0.416667
vt 0.541667 0.500000
vt 0.541667 0.416667
vt 0.458333 0.416667
vt 0.375000 0.500000
vt 0.375000 0.416667
vt 0.458333 0.500000
vt 0.375000 0.250000
vt 0.458333 0.333333
vt 0.375000 0.333333
vt 0.458333 0.250000
vt 0.541667 0.333333
vt 0.625000 0.250000
vt 0.625000 0.333333
vt 0.458333 0.666667
vt 0.375000 0.666667
vt 0.458386 0.749999
vt 0.375000 0.583333
vt 0.458333 0.583333
vt 0.625000 0.500000
vt 0.541667 0.583333
vt 0.625111 0.583384
vt 0.208333 0.666667
vt 0.125000 0.750000
vt 0.125000 0.666667
vt 0.208333 0.750000
vt 0.125000 0.500000
vt 0.208333 0.583333
vt 0.125000 0.583333
vt 0.291667 0.500000
vt 0.208333 0.500000
vt 0.291667 0.583333
vt 0.458333 0.166667
vt 0.375000 0.166667
vt 0.458347 -0.000013
vt 0.375000 0.083333
vt 0.375000 0.000000
vt 0.458333 0.083333
vt 0.541667 0.083333
vt 0.542049 -0.000173
vt 0.625155 0.083258
vt 0.458396 0.916631
vt 0.375000 1.000000
vt 0.375000 0.916667
vt 0.458358 0.999990
vt 0.458524 0.833302
vt 0.375000 0.833333
vt 0.542339 0.833361
vt 0.626438 0.833603
vt 0.626528 0.916392
vt 0.708638 0.666587
vt 0.626112 0.666696
vt 0.708674 0.750059
vt 0.708323 0.583538
vt 0.708333 0.500000
vt 0.791669 0.583415
vt 0.875000 0.500000
vt 0.791667 0.500000
vt 0.874965 0.666685
vt 0.625971 -0.000107
vt 0.874999 0.583337
vn -0.0523 0.8364 0.5456
vn -0.2233 0.1071 0.9689
vn -0.1337 0.9910 -0.0084
vn 0.0001 -0.9999 0.0121
vn 0.8284 -0.0978 0.5515
vn 0.3793 -0.0632 -0.9231
vn -0.0144 -0.8640 -0.5033
vn 0.3685 -0.2403 -0.8980
vn -0.2954 -0.7068 -0.6428
vn 0.0500 -0.8676 -0.4947
vn -0.3187 0.0933 -0.9433
vn -0.0177 -0.1713 -0.9851
vn 0.1077 0.6196 -0.7775
vn 0.2930 0.0703 -0.9535
vn 0.3341 -0.8750 -0.3502
vn 0.7310 -0.6690 0.1344
vn 0.2220 -0.8124 -0.5392
vn 0.3066 -0.9483 0.0818
vn 0.3592 -0.5007 -0.7876
vn 0.5685 -0.8197 0.0707
vn 0.4925 -0.3422 -0.8002
vn 0.8207 -0.2077 -0.5322
vn -0.2644 -0.9358 0.2330
vn -0.1049 -0.9920 0.0703
vn -0.3202 -0.9299 -0.1810
vn -0.2999 -0.9540 -0.0029
vn 0.0403 -0.9283 -0.3695
vn 0.0284 -0.9963 -0.0814
vn -0.0660 -0.9392 -0.3369
vn 0.1925 -0.9473 -0.2560
vn -0.6291 -0.7621 -0.1531
vn -0.7798 0.2729 -0.5635
vn -0.6146 -0.6658 0.4230
vn -0.5819 -0.8129 0.0238
vn -0.6990 0.1176 0.7053
vn -0.9860 0.1620 0.0402
vn -0.2260 0.7342 0.6402
vn -0.2335 0.9194 0.3165
vn -0.3345 -0.7362 0.5884
vn -0.2634 -0.2150 0.9404
vn 0.2179 -0.8439 0.4903
vn -0.0294 -0.8505 0.5252
vn 0.3726 -0.5284 0.7629
vn -0.0781 -0.5446 0.8351
vn 0.3887 -0.3198 0.8641
vn -0.1441 -0.0459 0.9885
vn 0.6351 0.4456 0.6310
vn 0.2679 0.7896 0.5520
vn 0.4933 0.3944 -0.7753
vn 0.7790 0.4285 -0.4578
vn 0.1905 0.6659 -0.7213
vn 0.2236 0.9738 -0.0415
vn 0.2536 0.9247 -0.2840
vn 0.0396 0.9904 0.1326
vn -0.0924 0.8680 0.4878
vn -0.2627 0.1154 0.9579
vn 0.0060 0.9898 -0.1421
vn 0.1750 -0.9307 -0.3211
vn 0.7792 -0.2216 0.5864
vn 0.1113 -0.0265 -0.9934
vn 0.1467 -0.7614 -0.6314
vn 0.2625 -0.3715 -0.8906
vn -0.4999 -0.4705 -0.7271
vn -0.1192 -0.7039 -0.7002
vn -0.3893 0.0733 -0.9182
vn 0.1728 -0.0915 -0.9807
vn 0.0228 0.6427 -0.7658
vn 0.3541 0.0446 -0.9341
vn 0.5049 -0.8625 -0.0351
vn 0.5902 -0.7845 0.1902
vn 0.2264 -0.8099 -0.5411
vn 0.4188 -0.9078 0.0232
vn 0.4939 -0.2713 -0.8261
vn 0.7872 -0.3479 -0.5092
vn 0.6619 -0.1145 -0.7408
vn 0.8847 -0.1209 -0.4501
vn -0.3739 -0.9232 0.0885
vn -0.0806 -0.9965 0.0206
vn -0.2314 -0.9191 -0.3189
vn -0.2967 -0.9550 0.0007
vn 0.0079 -0.9207 -0.3902
vn -0.0977 -0.9687 -0.2281
vn 0.0432 -0.9616 -0.2709
vn 0.0481 -0.9925 -0.1123
vn -0.6152 -0.4713 -0.6320
vn -0.7032 0.3395 -0.6247
vn -0.5053 -0.7176 0.4793
vn -0.6503 -0.7537 -0.0953
vn -0.6381 0.1864 0.7470
vn -0.9624 0.2693 -0.0356
vn -0.3983 0.7938 0.4597
vn -0.1467 0.9697 0.1952
vn -0.4064 -0.6131 0.6774
vn -0.2868 -0.0498 0.9567
vn 0.1861 -0.8611 0.4731
vn -0.1054 -0.6950 0.7113
vn 0.3627 -0.4138 0.8350
vn -0.1880 -0.2304 0.9548
vn 0.6457 -0.0354 0.7628
vn 0.0448 0.0037 0.9990
vn 0.6238 0.4496 0.6393
vn 0.1940 0.7704 0.6073
vn 0.4027 0.4594 -0.7917
vn 0.5920 0.8018 0.0822
vn 0.5897 0.7820 -0.2018
vn 0.1153 0.9846 0.1312
vn 0.1019 0.9870 -0.1239
vn 0.1604 0.9597 0.2309
usemtl Material
s off
f 56/1/1 7/2/1 22/3/1
f 52/4/2 7/5/2 16/6/2
f 28/7/3 19/8/3 48/9/3
f 44/10/4 4/11/4 26/12/4
f 40/13/5 3/14/5 17/15/5
f 30/16/6 13/17/6 36/18/6
f 34/19/7 2/20/7 11/21/7
f 36/18/8 14/22/8 34/19/8
f 6/23/9 33/24/9 12/25/9
f 12/25/10 34/19/10 11/21/10
f 19/8/11 33/24/11 20/26/11
f 35/27/12 34/19/12 33/24/12
f 5/28/13 35/27/13 19/8/13
f 29/29/14 36/18/14 35/27/14
f 38/30/15 4/11/15 31/31/15
f 38/30/16 17/15/16 18/32/16
f 14/22/17 32/33/17 2/20/17
f 32/33/18 38/30/18 31/31/18
f 13/17/19 37/34/19 14/22/19
f 37/34/20 40/13/20 38/30/20
f 1/35/21 39/36/21 13/17/21
f 23/37/22 40/13/22 39/36/22
f 42/38/23 8/39/23 10/40/23
f 42/38/24 26/12/24 25/41/24
f 6/42/25 41/43/25 9/44/25
f 41/43/26 10/40/26 9/44/26
f 11/45/27 41/43/27 12/46/27
f 43/47/28 42/38/28 41/43/28
f 2/20/29 43/47/29 11/45/29
f 43/47/30 31/31/30 44/10/30
f 46/48/31 6/23/31 9/49/31
f 48/9/32 20/26/32 46/48/32
f 15/50/33 10/51/33 8/52/33
f 45/53/34 9/49/34 10/51/34
f 15/50/35 47/54/35 45/53/35
f 47/54/36 46/48/36 45/53/36
f 16/55/37 27/56/37 47/54/37
f 27/56/38 48/9/38 47/54/38
f 50/57/39 8/58/39 25/59/39
f 52/4/40 15/60/40 50/57/40
f 4/11/41 49/61/41 26/62/41
f 49/61/42 25/59/42 26/62/42
f 17/15/43 49/61/43 18/32/43
f 51/63/44 50/57/44 49/61/44
f 17/15/45 21/64/45 51/63/45
f 51/63/46 22/65/46 52/4/46
f 54/66/47 3/14/47 24/67/47
f 56/1/48 21/68/48 54/66/48
f 1/35/49 53/69/49 23/37/49
f 53/69/50 24/67/50 23/37/50
f 30/70/51 55/71/51 53/69/51
f 55/71/52 54/66/52 53/69/52
f 5/72/53 55/71/53 29/73/53
f 55/71/54 27/74/54 56/1/54
f 56/1/55 27/74/55 7/2/55
f 52/4/56 22/65/56 7/5/56
f 28/7/57 5/28/57 19/8/57
f 44/10/58 31/31/58 4/11/58
f 40/13/59 24/67/59 3/14/59
f 30/16/60 1/35/60 13/17/60
f 34/19/61 14/22/61 2/20/61
f 36/18/62 13/17/62 14/22/62
f 6/23/63 20/26/63 33/24/63
f 12/25/64 33/24/64 34/19/64
f 19/8/65 35/27/65 33/24/65
f 35/27/66 36/18/66 34/19/66
f 5/28/67 29/29/67 35/27/67
f 29/29/68 30/16/68 36/18/68
f 38/30/69 18/32/69 4/11/69
f 38/30/70 40/13/70 17/15/70
f 14/22/71 37/34/71 32/33/71
f 32/33/72 37/34/72 38/30/72
f 13/17/73 39/36/73 37/34/73
f 37/34/74 39/36/74 40/13/74
f 1/35/75 23/37/75 39/36/75
f 23/37/76 24/67/76 40/13/76
f 42/38/77 25/41/77 8/39/77
f 42/38/78 44/10/78 26/12/78
f 6/42/79 12/46/79 41/43/79
f 41/43/80 42/38/80 10/40/80
f 11/45/81 43/47/81 41/43/81
f 43/47/82 44/10/82 42/38/82
f 2/20/83 32/33/83 43/47/83
f 43/47/84 32/33/84 31/31/84
f 46/48/85 20/26/85 6/23/85
f 48/9/86 19/8/86 20/26/86
f 15/50/87 45/53/87 10/51/87
f 45/53/88 46/48/88 9/49/88
f 15/50/89 16/55/89 47/54/89
f 47/54/90 48/9/90 46/48/90
f 16/55/91 7/75/91 27/56/91
f 27/56/92 28/7/92 48/9/92
f 50/57/93 15/60/93 8/58/93
f 52/4/94 16/6/94 15/60/94
f 4/11/95 18/32/95 49/61/95
f 49/61/96 50/57/96 25/59/96
f 17/15/97 51/63/97 49/61/97
f 51/63/98 52/4/98 50/57/98
f 17/15/99 3/14/99 21/64/99
f 51/63/100 21/64/100 22/65/100
f 54/66/101 21/68/101 3/14/101
f 56/1/102 22/3/102 21/68/102
f 1/35/103 30/70/103 53/69/103
f 53/69/104 54/66/104 24/67/104
f 30/70/105 29/73/105 55/71/105
f 55/71/106 56/1/106 54/66/106
f 5/72/107 28/76/107 55/71/107
f 55/71/108 28/76/108 27/74/108
