# Blender v2.91.0 OBJ File: ''
# www.blender.org
mtllib rock1.mtl
o Cube
v 1.583355 1.333239 -0.872502
v 1.207465 -0.153990 -0.973873
v 1.670056 1.206667 1.062288
v 1.247107 -0.810909 1.019209
v -0.537970 1.336489 -0.803418
v -1.225246 -0.534727 -1.136332
v -0.271348 1.255024 1.198004
v -0.797638 -0.607504 1.288857
v -1.157580 -0.676864 -0.343253
v -0.952655 -0.731388 0.565674
v 0.395877 -0.224736 -1.256079
v -0.357293 -0.388579 -1.321482
v 1.322501 0.709110 -1.090064
v 1.321238 0.306219 -1.160670
v -1.060094 -0.063545 1.419466
v -0.931461 0.499708 1.344023
v 1.582770 0.216429 1.173040
v 1.423661 -0.440708 1.166952
v -1.607559 0.735827 -1.219410
v -1.747708 0.031437 -1.340488
v 1.099268 1.460502 1.309400
v 0.292762 1.555488 1.331918
v 1.861768 1.548199 -0.273508
v 1.935673 1.486588 0.430579
v -0.142252 -0.790353 1.479611
v 0.574382 -0.889326 1.383239
v -0.364604 1.519753 0.589222
v -0.454410 1.525192 -0.126077
v 0.117292 1.568099 -1.031207
v 0.981341 1.577698 -1.032210
v 1.549686 -0.670496 0.363869
v 1.612638 -0.442557 -0.314161
v -0.895002 -0.021949 -1.708910
v 0.228310 0.264878 -1.636695
v -0.803251 0.855592 -1.598357
v 0.241207 0.802511 -1.500863
v 1.894236 0.018278 -0.412459
v 1.919967 -0.254902 0.423883
v 1.829619 0.623623 -0.385950
v 1.948688 0.438300 0.424956
v -0.096083 -0.855062 -0.392179
v -0.053334 -0.912622 0.639237
v 0.932872 -0.655964 -0.372423
v 0.889703 -0.920704 0.555650
v -1.499262 -0.140988 0.538967
v -1.899910 -0.129878 -0.503825
v -1.398073 0.631979 0.506603
v -1.751427 0.767355 -0.417527
v 0.602210 -0.389065 1.721038
v -0.311183 -0.234937 1.806775
v 0.723014 0.454987 1.608352
v -0.172755 0.546275 1.682851
v 1.503894 2.146315 -0.239726
v 1.537235 2.114121 0.623972
v 0.443745 2.230346 -0.217424
v 0.481548 2.193845 0.645162
vt 0.791667 0.666667
vt 0.875000 0.666667
vt 0.875000 0.750000
vt 0.791667 0.750000
vt 0.541667 0.916667
vt 0.625000 0.916667
vt 0.625000 1.000000
vt 0.541667 1.000000
vt 0.541667 0.166667
vt 0.625000 0.166667
vt 0.625000 0.250000
vt 0.541667 0.250000
vt 0.291667 0.666667
vt 0.375000 0.666667
vt 0.375000 0.750000
vt 0.291667 0.750000
vt 0.541667 0.666667
vt 0.625000 0.666667
vt 0.625000 0.750000
vt 0.541667 0.750000
vt 0.541667 0.416667
vt 0.625000 0.416667
vt 0.625000 0.500000
vt 0.541667 0.500000
vt 0.375000 0.416667
vt 0.458333 0.416667
vt 0.458333 0.500000
vt 0.375000 0.500000
vt 0.375000 0.250000
vt 0.458333 0.250000
vt 0.458333 0.333333
vt 0.375000 0.333333
vt 0.541667 0.333333
vt 0.625000 0.333333
vt 0.458333 0.666667
vt 0.458333 0.750000
vt 0.458333 0.583333
vt 0.375000 0.583333
vt 0.541667 0.583333
vt 0.625000 0.583333
vt 0.125000 0.666667
vt 0.208333 0.666667
vt 0.208333 0.750000
vt 0.125000 0.750000
vt 0.125000 0.500000
vt 0.208333 0.500000
vt 0.208333 0.583333
vt 0.125000 0.583333
vt 0.291667 0.500000
vt 0.291667 0.583333
vt 0.375000 0.166667
vt 0.458333 0.166667
vt 0.375000 0.000000
vt 0.458333 0.000000
vt 0.458333 0.083333
vt 0.375000 0.083333
vt 0.541667 0.000000
vt 0.541667 0.083333
vt 0.625000 0.000000
vt 0.625000 0.083333
vt 0.375000 0.916667
vt 0.458333 0.916667
vt 0.458333 1.000000
vt 0.375000 1.000000
vt 0.458333 0.833333
vt 0.375000 0.833333
vt 0.541667 0.833333
vt 0.625000 0.833333
vt 0.708333 0.666667
vt 0.708333 0.750000
vt 0.708333 0.500000
vt 0.708333 0.583333
vt 0.791667 0.500000
vt 0.791667 0.583333
vt 0.875000 0.500000
vt 0.875000 0.583333
vn -0.5477 0.7048 0.4509
vn -0.4041 0.4775 0.7802
vn -0.4584 0.8762 -0.1491
vn 0.2527 -0.9669 0.0342
vn 0.9108 -0.0119 0.4126
vn 0.3501 0.1985 -0.9154
vn 0.3509 -0.4655 -0.8125
vn 0.3745 0.1934 -0.9068
vn -0.1935 -0.6728 -0.7141
vn 0.1939 -0.5617 -0.8043
vn -0.4099 0.1907 -0.8920
vn 0.0590 0.1670 -0.9842
vn -0.3654 0.8454 -0.3895
vn 0.0549 0.5286 -0.8471
vn 0.7485 -0.5971 0.2883
vn 0.8733 -0.1240 0.4711
vn 0.6277 -0.4631 -0.6257
vn 0.7860 -0.5924 -0.1767
vn 0.8108 0.1064 -0.5756
vn 0.9964 0.0292 -0.0795
vn 0.8575 -0.0532 -0.5117
vn 0.9919 -0.0020 -0.1267
vn -0.2509 -0.9546 0.1609
vn -0.0557 -0.9954 0.0782
vn -0.0549 -0.9447 -0.3233
vn -0.1798 -0.9831 -0.0338
vn 0.1955 -0.8419 -0.5030
vn 0.0900 -0.9827 -0.1616
vn 0.2748 -0.7962 -0.5391
vn 0.2920 -0.9196 -0.2628
vn -0.6217 -0.7636 -0.1744
vn -0.9678 0.1950 -0.1594
vn -0.7479 -0.5653 0.3481
vn -0.6653 -0.7240 0.1821
vn -0.8666 0.1864 0.4629
vn -0.9231 0.1263 0.3633
vn -0.6231 0.6585 0.4220
vn -0.5859 0.7785 0.2252
vn -0.4347 -0.4862 0.7580
vn -0.4096 0.2129 0.8871
vn 0.4561 -0.5128 0.7273
vn 0.0120 -0.5318 0.8468
vn 0.5028 -0.0324 0.8638
vn 0.1046 0.1269 0.9864
vn 0.4509 0.0778 0.8892
vn 0.0846 0.2737 0.9581
vn 0.6567 0.4038 0.6370
vn 0.0828 0.7064 0.7029
vn 0.5587 0.5427 -0.6272
vn 0.8485 0.5285 -0.0264
vn 0.0230 0.7876 -0.6157
vn 0.0779 0.9963 0.0364
vn -0.5370 0.7877 -0.3019
vn -0.6178 0.7831 0.0708
usemtl Material
s off
f 56/1/1 27/2/1 7/3/1 22/4/1
f 52/5/2 22/6/2 7/7/2 16/8/2
f 48/9/3 28/10/3 5/11/3 19/12/3
f 44/13/4 31/14/4 4/15/4 26/16/4
f 40/17/5 24/18/5 3/19/5 17/20/5
f 36/21/6 30/22/6 1/23/6 13/24/6
f 11/25/7 34/26/7 14/27/7 2/28/7
f 34/26/8 36/21/8 13/24/8 14/27/8
f 6/29/9 20/30/9 33/31/9 12/32/9
f 12/32/10 33/31/10 34/26/10 11/25/10
f 20/30/11 19/12/11 35/33/11 33/31/11
f 33/31/12 35/33/12 36/21/12 34/26/12
f 19/12/13 5/11/13 29/34/13 35/33/13
f 35/33/14 29/34/14 30/22/14 36/21/14
f 31/14/15 38/35/15 18/36/15 4/15/15
f 38/35/16 40/17/16 17/20/16 18/36/16
f 2/28/17 14/27/17 37/37/17 32/38/17
f 32/38/18 37/37/18 38/35/18 31/14/18
f 14/27/19 13/24/19 39/39/19 37/37/19
f 37/37/20 39/39/20 40/17/20 38/35/20
f 13/24/21 1/23/21 23/40/21 39/39/21
f 39/39/22 23/40/22 24/18/22 40/17/22
f 10/41/23 42/42/23 25/43/23 8/44/23
f 42/42/24 44/13/24 26/16/24 25/43/24
f 6/45/25 12/46/25 41/47/25 9/48/25
f 9/48/26 41/47/26 42/42/26 10/41/26
f 12/46/27 11/49/27 43/50/27 41/47/27
f 41/47/28 43/50/28 44/13/28 42/42/28
f 11/49/29 2/28/29 32/38/29 43/50/29
f 43/50/30 32/38/30 31/14/30 44/13/30
f 9/51/31 46/52/31 20/30/31 6/29/31
f 46/52/32 48/9/32 19/12/32 20/30/32
f 8/53/33 15/54/33 45/55/33 10/56/33
f 10/56/34 45/55/34 46/52/34 9/51/34
f 15/54/35 16/57/35 47/58/35 45/55/35
f 45/55/36 47/58/36 48/9/36 46/52/36
f 16/57/37 7/59/37 27/60/37 47/58/37
f 47/58/38 27/60/38 28/10/38 48/9/38
f 25/61/39 50/62/39 15/63/39 8/64/39
f 50/62/40 52/5/40 16/8/40 15/63/40
f 4/15/41 18/36/41 49/65/41 26/66/41
f 26/66/42 49/65/42 50/62/42 25/61/42
f 18/36/43 17/20/43 51/67/43 49/65/43
f 49/65/44 51/67/44 52/5/44 50/62/44
f 17/20/45 3/19/45 21/68/45 51/67/45
f 51/67/46 21/68/46 22/6/46 52/5/46
f 24/18/47 54/69/47 21/70/47 3/19/47
f 54/69/48 56/1/48 22/4/48 21/70/48
f 1/23/49 30/71/49 53/72/49 23/40/49
f 23/40/50 53/72/50 54/69/50 24/18/50
f 30/71/51 29/73/51 55/74/51 53/72/51
f 53/72/52 55/74/52 56/1/52 54/69/52
f 29/73/53 5/75/53 28/76/53 55/74/53
f 55/74/54 28/76/54 27/2/54 56/1/54
