# Blender v2.91.0 OBJ File: ''
# www.blender.org
mtllib rock2.mtl
o Cube
v 2.021794 1.217726 -1.426515
v 1.278754 -0.383370 -1.212185
v 1.434629 0.910860 1.478353
v 0.998336 -0.977881 1.210569
v 0.334517 3.011598 -0.947105
v -1.357675 -0.177338 -1.164454
v -0.441667 2.115882 2.174922
v -1.043297 -0.377734 1.459219
v -1.385545 -0.397546 -0.176360
v -1.298626 -0.367451 0.803257
v 0.421326 -0.348230 -1.375284
v -0.337952 -0.419639 -1.478396
v 1.644450 0.429915 -1.497638
v 1.503293 -0.000340 -1.501478
v -1.596302 0.519500 1.801937
v -1.390541 1.224492 1.928245
v 1.173968 -0.127621 1.597782
v 1.033021 -0.702836 1.467817
v -0.977285 2.439771 -1.611585
v -1.652675 1.047935 -1.542844
v 0.885259 1.130621 2.265711
v 0.246950 2.028130 2.458534
v 2.289951 1.554413 -0.742388
v 1.972049 1.364662 0.489122
v -0.237263 -0.853932 1.552687
v 0.449806 -0.972941 1.479066
v -0.264571 2.960489 1.228101
v 0.161026 3.308980 0.104721
v 1.105849 2.707321 -1.183053
v 1.591993 1.544405 -1.363739
v 1.354111 -0.808215 0.513193
v 1.624041 -0.554340 -0.399061
v -0.612103 0.199662 -2.022805
v 0.404319 0.041664 -1.973483
v -0.108806 1.368617 -2.088042
v 0.599910 0.698549 -1.944438
v 1.994323 -0.085642 -0.668789
v 1.713937 -0.417382 0.575382
v 2.040481 0.601227 -0.845360
v 1.770248 0.374082 0.372180
v -0.096083 -0.855062 -0.392179
v -0.078738 -0.917306 0.658195
v 0.931033 -0.726496 -0.422851
v 0.769194 -1.001589 0.648348
v -2.201480 0.865219 0.921517
v -2.227769 1.081271 -0.605565
v -1.997155 2.106631 0.916526
v -1.801438 2.625843 -0.447574
v 0.297888 -0.596578 1.963351
v -0.549948 -0.316168 1.991449
v 0.202715 0.108589 2.226618
v -0.573048 0.657522 2.199672
v 2.138969 2.205940 -0.461357
v 1.778737 2.041121 0.892395
v 1.237213 3.119993 0.000586
v 0.903651 2.693936 1.614053
vt 0.791996 0.666682
vt 0.874965 0.666685
vt 0.874573 0.750045
vt 0.791982 0.749960
vt 0.542039 0.916560
vt 0.626528 0.916392
vt 0.625939 0.999612
vt 0.541991 0.999981
vt 0.541667 0.166667
vt 0.625003 0.166664
vt 0.625000 0.250000
vt 0.541667 0.250000
vt 0.291667 0.666667
vt 0.375000 0.666667
vt 0.375000 0.750000
vt 0.291667 0.750000
vt 0.541870 0.666753
vt 0.626112 0.666696
vt 0.625994 0.749590
vt 0.542016 0.750155
vt 0.541667 0.416667
vt 0.625000 0.416667
vt 0.625000 0.500000
vt 0.541667 0.500000
vt 0.375000 0.416667
vt 0.458333 0.416667
vt 0.458333 0.500000
vt 0.375000 0.500000
vt 0.375000 0.250000
vt 0.458333 0.250000
vt 0.458333 0.333333
vt 0.375000 0.333333
vt 0.541667 0.333333
vt 0.625000 0.333333
vt 0.458333 0.666667
vt 0.458386 0.749999
vt 0.458333 0.583333
vt 0.375000 0.583333
vt 0.541667 0.583333
vt 0.625111 0.583384
vt 0.125000 0.666667
vt 0.208333 0.666667
vt 0.208333 0.750000
vt 0.125000 0.750000
vt 0.125000 0.500000
vt 0.208333 0.500000
vt 0.208333 0.583333
vt 0.125000 0.583333
vt 0.291667 0.500000
vt 0.291667 0.583333
vt 0.375000 0.166667
vt 0.458333 0.166667
vt 0.375000 0.000000
vt 0.458347 -0.000013
vt 0.458333 0.083333
vt 0.375000 0.083333
vt 0.542049 -0.000173
vt 0.541667 0.083333
vt 0.625971 -0.000107
vt 0.625155 0.083258
vt 0.375000 0.916667
vt 0.458396 0.916631
vt 0.458358 0.999990
vt 0.375000 1.000000
vt 0.458524 0.833302
vt 0.375000 0.833333
vt 0.542339 0.833361
vt 0.626438 0.833603
vt 0.708638 0.666587
vt 0.708674 0.750059
vt 0.708333 0.500000
vt 0.708323 0.583538
vt 0.791667 0.500000
vt 0.791669 0.583415
vt 0.875000 0.500000
vt 0.874999 0.583337
vn -0.0756 0.7794 0.6220
vn -0.3279 0.0456 0.9436
vn -0.2384 0.9209 -0.3083
vn 0.1563 -0.9875 -0.0221
vn 0.9043 -0.2056 0.3742
vn 0.2980 0.1277 -0.9460
vn 0.1724 -0.7624 -0.6237
vn 0.3813 -0.0903 -0.9200
vn -0.5298 -0.5045 -0.6818
vn 0.0207 -0.7467 -0.6648
vn -0.3517 0.1133 -0.9292
vn 0.0860 -0.0526 -0.9949
vn 0.1002 0.5491 -0.8297
vn 0.3572 0.2510 -0.8997
vn 0.7426 -0.5911 0.3150
vn 0.8680 -0.0992 0.4865
vn 0.5983 -0.6877 -0.4111
vn 0.7644 -0.6444 0.0201
vn 0.8435 -0.2174 -0.4913
vn 0.9764 -0.0123 0.2156
vn 0.8965 -0.2892 -0.3356
vn 0.9520 -0.2422 0.1874
vn -0.4499 -0.8912 0.0586
vn -0.1304 -0.9913 0.0168
vn -0.3333 -0.9083 -0.2527
vn -0.3720 -0.9282 0.0044
vn 0.1179 -0.9065 -0.4053
vn 0.0200 -0.9876 -0.1557
vn 0.1242 -0.9288 -0.3491
vn 0.2537 -0.9470 -0.1973
vn -0.8412 -0.4454 -0.3067
vn -0.7767 0.3081 -0.5494
vn -0.7595 -0.5820 0.2905
vn -0.8408 -0.5414 -0.0022
vn -0.7943 0.1304 0.5933
vn -0.9753 0.2208 -0.0010
vn -0.5120 0.5855 0.6285
vn -0.4164 0.8858 0.2050
vn -0.5322 -0.6294 0.5662
vn -0.3409 -0.1479 0.9284
vn 0.3289 -0.6831 0.6521
vn -0.1488 -0.7390 0.6570
vn 0.4909 -0.2718 0.8278
vn -0.1408 -0.2769 0.9505
vn 0.6174 -0.2536 0.7446
vn -0.0061 -0.1198 0.9928
vn 0.8523 0.0116 0.5229
vn 0.6867 0.2728 0.6739
vn 0.5516 0.5484 -0.6285
vn 0.9575 0.1110 0.2664
vn 0.6362 0.5819 -0.5065
vn 0.7348 0.6115 0.2936
vn 0.1958 0.9357 -0.2935
vn 0.1520 0.9392 0.3079
usemtl Material
s off
f 56/1/1 27/2/1 7/3/1 22/4/1
f 52/5/2 22/6/2 7/7/2 16/8/2
f 48/9/3 28/10/3 5/11/3 19/12/3
f 44/13/4 31/14/4 4/15/4 26/16/4
f 40/17/5 24/18/5 3/19/5 17/20/5
f 36/21/6 30/22/6 1/23/6 13/24/6
f 11/25/7 34/26/7 14/27/7 2/28/7
f 34/26/8 36/21/8 13/24/8 14/27/8
f 6/29/9 20/30/9 33/31/9 12/32/9
f 12/32/10 33/31/10 34/26/10 11/25/10
f 20/30/11 19/12/11 35/33/11 33/31/11
f 33/31/12 35/33/12 36/21/12 34/26/12
f 19/12/13 5/11/13 29/34/13 35/33/13
f 35/33/14 29/34/14 30/22/14 36/21/14
f 31/14/15 38/35/15 18/36/15 4/15/15
f 38/35/16 40/17/16 17/20/16 18/36/16
f 2/28/17 14/27/17 37/37/17 32/38/17
f 32/38/18 37/37/18 38/35/18 31/14/18
f 14/27/19 13/24/19 39/39/19 37/37/19
f 37/37/20 39/39/20 40/17/20 38/35/20
f 13/24/21 1/23/21 23/40/21 39/39/21
f 39/39/22 23/40/22 24/18/22 40/17/22
f 10/41/23 42/42/23 25/43/23 8/44/23
f 42/42/24 44/13/24 26/16/24 25/43/24
f 6/45/25 12/46/25 41/47/25 9/48/25
f 9/48/26 41/47/26 42/42/26 10/41/26
f 12/46/27 11/49/27 43/50/27 41/47/27
f 41/47/28 43/50/28 44/13/28 42/42/28
f 11/49/29 2/28/29 32/38/29 43/50/29
f 43/50/30 32/38/30 31/14/30 44/13/30
f 9/51/31 46/52/31 20/30/31 6/29/31
f 46/52/32 48/9/32 19/12/32 20/30/32
f 8/53/33 15/54/33 45/55/33 10/56/33
f 10/56/34 45/55/34 46/52/34 9/51/34
f 15/54/35 16/57/35 47/58/35 45/55/35
f 45/55/36 47/58/36 48/9/36 46/52/36
f 16/57/37 7/59/37 27/60/37 47/58/37
f 47/58/38 27/60/38 28/10/38 48/9/38
f 25/61/39 50/62/39 15/63/39 8/64/39
f 50/62/40 52/5/40 16/8/40 15/63/40
f 4/15/41 18/36/41 49/65/41 26/66/41
f 26/66/42 49/65/42 50/62/42 25/61/42
f 18/36/43 17/20/43 51/67/43 49/65/43
f 49/65/44 51/67/44 52/5/44 50/62/44
f 17/20/45 3/19/45 21/68/45 51/67/45
f 51/67/46 21/68/46 22/6/46 52/5/46
f 24/18/47 54/69/47 21/70/47 3/19/47
f 54/69/48 56/1/48 22/4/48 21/70/48
f 1/23/49 30/71/49 53/72/49 23/40/49
f 23/40/50 53/72/50 54/69/50 24/18/50
f 30/71/51 29/73/51 55/74/51 53/72/51
f 53/72/52 55/74/52 56/1/52 54/69/52
f 29/73/53 5/75/53 28/76/53 55/74/53
f 55/74/54 28/76/54 27/2/54 56/1/54
